<?xml version="1.0" encoding="UTF-8"?>
<svg width="48px" height="88px" viewBox="0 0 48 88" version="1.1" xmlns="http://www.w3.org/2000/svg" xmlns:xlink="http://www.w3.org/1999/xlink">
    <!-- Generator: Sketch 51.3 (57544) - http://www.bohemiancoding.com/sketch -->
    <title>mdk</title>
    <desc>Created with Sketch.</desc>
    <defs>
        <ellipse id="path-1" cx="23.5" cy="25.5" rx="15.5" ry="19.5"></ellipse>
        <filter x="-13.2%" y="-10.5%" width="126.5%" height="121.0%" filterUnits="objectBoundingBox" id="filter-2">
            <feGaussianBlur stdDeviation="1.5" in="SourceAlpha" result="shadowBlurInner1"></feGaussianBlur>
            <feOffset dx="4" dy="5" in="shadowBlurInner1" result="shadowOffsetInner1"></feOffset>
            <feComposite in="shadowOffsetInner1" in2="SourceAlpha" operator="arithmetic" k2="-1" k3="1" result="shadowInnerInner1"></feComposite>
            <feColorMatrix values="0 0 0 0 0   0 0 0 0 0   0 0 0 0 0  0 0 0 0.5 0" type="matrix" in="shadowInnerInner1"></feColorMatrix>
        </filter>
        <text id="text-3" font-family="CocotteAlternate-Regular, Cocotte Alternate" font-size="12" font-weight="normal" fill="#FFFFFF">
            <tspan x="24" y="38">mdk</tspan>
        </text>
        <filter x="-26.5%" y="-25.0%" width="152.9%" height="190.0%" filterUnits="objectBoundingBox" id="filter-4">
            <feOffset dx="0" dy="2" in="SourceAlpha" result="shadowOffsetOuter1"></feOffset>
            <feGaussianBlur stdDeviation="1" in="shadowOffsetOuter1" result="shadowBlurOuter1"></feGaussianBlur>
            <feColorMatrix values="0 0 0 0 0   0 0 0 0 0   0 0 0 0 0  0 0 0 0.5 0" type="matrix" in="shadowBlurOuter1"></feColorMatrix>
        </filter>
    </defs>
    <g id="Page-1" stroke="none" stroke-width="1" fill="none" fill-rule="evenodd">
        <g id="Artboard" transform="translate(-267.000000, -133.000000)">
            <g id="mdk" transform="translate(267.000000, 133.000000)">
                <path d="M28.3677906,12.6885083 C28.2951718,12.6885083 28.2225818,12.6914063 28.1501941,12.6971954 C26.6474972,12.8173707 25.5267457,14.1329678 25.6469314,15.6356625 C26.8746755,30.987623 27.6869928,42.5508485 28.0839374,50.3270811 C28.5060965,58.5972719 28.5129219,63.6031386 28.0923648,65.4379062 C28.0792464,65.4951379 28.067811,65.5527425 28.0580734,65.6106457 L24.5093044,86.7128352 C24.4530123,87.0475681 24.6589018,87.3706743 24.986082,87.4610513 C25.3386522,87.5584417 25.7034369,87.3515737 25.8008515,86.9990234 C36.1074272,49.6874331 41.264275,26.511003 41.264275,17.5537427 C41.264275,7.88774949 38.765775,6.10591947 33.1933148,11.5497553 C32.4460341,12.2797871 31.4428004,12.6884952 30.3981148,12.6884952 L28.3677939,12.6885083 Z" id="Rectangle-Copy-2" stroke="#000000" stroke-width="1" fill="#000000" fill-rule="evenodd" transform="translate(32.882138, 47.992626) scale(-1, 1) translate(-32.882138, -47.992626) "></path>
                <path d="M11.3666001,8.95919794 C11.2939812,8.95919794 11.2213913,8.96209594 11.1490035,8.96788501 C9.6463066,9.08806036 8.52555518,10.4036574 8.6457409,11.9063522 C9.87348496,27.2583126 10.6858022,38.8215381 11.0827468,46.5977707 C11.5049059,54.8679616 11.5117313,59.8738282 11.0911742,61.7085958 C11.0780558,61.7658276 11.0666205,61.8234321 11.0568829,61.8813353 L7.50811381,82.9835249 C7.45872074,83.2772338 7.64109737,83.5602446 7.92897347,83.636612 C8.23684282,83.7182831 8.55264477,83.5349091 8.63433473,83.2270579 C16.4902323,53.6132901 20.4193345,34.4571593 20.4193345,25.8166198 C20.4193345,23.8343198 34.2546967,14.2423563 38.9811616,13.3334289 C40.3619233,13.0679002 41.2439218,12.2125963 41.7270078,10.935962 C42.0601704,10.055525 42.1628706,8.96458618 42.0769439,8.56408503 C41.4765775,5.76579898 32.4209348,5.74679863 15.2690697,8.8935272 C15.0309516,8.93721301 14.7893592,8.95919121 14.5472679,8.95919121 L11.3666011,8.95919794 Z" id="Rectangle-Copy-3" stroke="#000000" stroke-width="1" fill="#000000" fill-rule="evenodd"></path>
                <g id="Oval">
                    <use fill="#FFFFFF" fill-rule="evenodd" xlink:href="#path-1"></use>
                    <use fill="black" fill-opacity="1" filter="url(#filter-2)" xlink:href="#path-1"></use>
                    <use stroke="#000000" stroke-width="0.2" xlink:href="#path-1"></use>
                </g>
                <path d="M6.81469766,6.62248498 C6.68030249,6.90228212 6.59014923,7.20123129 6.54745604,7.50867598 C4.57366058,21.718977 3.79720063,32.9313253 4.21614673,41.1385728 C4.63830583,49.4087636 4.64513125,54.4146303 4.22457417,56.2493979 C4.21145576,56.3066296 4.2000204,56.3642342 4.19028281,56.4221374 L0.641513722,77.5243269 C0.592120658,77.8180359 0.774497284,78.1010467 1.06237339,78.177414 C1.37024273,78.2590851 1.68604469,78.0757112 1.76773465,77.76786 C9.62363218,48.1540922 13.5527344,28.9979614 13.5527344,20.3574219 C13.5527344,18.3751218 27.3880966,8.78315835 32.1145615,7.87423099 C33.4953232,7.6087023 34.3773217,6.75339838 34.8604077,5.47676404 C35.1935703,4.5963271 35.2962705,3.50538824 35.2103438,3.10488708 C34.6285612,0.39321933 26.0684085,0.287362717 9.85620303,3.17160733 C8.90607873,3.34063991 8.09527983,3.95641891 7.67744298,4.82631294 L6.81469877,6.62248267 Z" id="Rectangle" stroke="#000000" stroke-width="1" fill="#000000" fill-rule="evenodd"></path>
                <path d="M32.6429515,7.41904595 C31.8587471,8.04086201 31.4362671,9.01279233 31.5165401,10.0103854 C32.8173276,26.1738771 33.6731069,38.2788202 34.0839374,46.3270811 C34.5927806,56.2954329 34.0792809,62.2382013 30.5093044,82.7128352 C30.4530123,83.0475681 30.6589018,83.3706743 30.986082,83.4610513 C31.3386522,83.5584417 31.7034369,83.3515737 31.8008515,82.9990234 C42.1074272,45.6874331 47.264275,22.511003 47.264275,13.5537427 C47.264275,3.44215324 43.8599718,0.498407049 36.724577,4.24898987 C36.5593989,4.33581257 36.4026818,4.43785748 36.2564634,4.55379783 L32.6429516,7.41904592 Z" id="Rectangle-Copy" stroke="#000000" stroke-width="1" fill="#000000" fill-rule="evenodd" transform="translate(38.882138, 43.083082) scale(-1, 1) translate(-38.882138, -43.083082) "></path>
                <g stroke="#000000" stroke-width="1">
                    <use fill="#FFFFFF" fill-opacity="1" stroke-opacity="1" filter="url(#filter-4)" xlink:href="#text-3"></use>
                    <use fill="#FFFFFF" fill-opacity="1" stroke-opacity="1" xlink:href="#text-3"></use>
                    <use xlink:href="#text-3"></use>
                </g>
            </g>
        </g>
    </g>
</svg>